<mxfile host="app.diagrams.net" agent="Mozilla/5.0 (Windows NT 10.0; Win64; x64) AppleWebKit/537.36 (KHTML, like Gecko) Chrome/133.0.0.0 Safari/537.36" version="26.0.16">
  <diagram name="Page-1" id="VgeWl-M5Spws3IxU9Avx">
    <mxGraphModel dx="2954" dy="1144" grid="1" gridSize="10" guides="1" tooltips="1" connect="1" arrows="1" fold="1" page="1" pageScale="1" pageWidth="1169" pageHeight="1654" math="0" shadow="0">
      <root>
        <mxCell id="0" />
        <mxCell id="1" parent="0" />
        <mxCell id="HeIXS3tcEKDFcrS3uAz8-10" style="edgeStyle=orthogonalEdgeStyle;rounded=0;orthogonalLoop=1;jettySize=auto;html=1;entryX=0.5;entryY=0;entryDx=0;entryDy=0;strokeWidth=3;" parent="1" source="HeIXS3tcEKDFcrS3uAz8-1" target="HeIXS3tcEKDFcrS3uAz8-2" edge="1">
          <mxGeometry relative="1" as="geometry" />
        </mxCell>
        <mxCell id="HeIXS3tcEKDFcrS3uAz8-11" style="edgeStyle=orthogonalEdgeStyle;rounded=0;orthogonalLoop=1;jettySize=auto;html=1;entryX=0.5;entryY=0;entryDx=0;entryDy=0;strokeWidth=3;" parent="1" source="HeIXS3tcEKDFcrS3uAz8-1" target="HeIXS3tcEKDFcrS3uAz8-9" edge="1">
          <mxGeometry relative="1" as="geometry" />
        </mxCell>
        <mxCell id="HeIXS3tcEKDFcrS3uAz8-12" style="edgeStyle=orthogonalEdgeStyle;rounded=0;orthogonalLoop=1;jettySize=auto;html=1;entryX=0.5;entryY=0;entryDx=0;entryDy=0;strokeWidth=3;" parent="1" source="HeIXS3tcEKDFcrS3uAz8-1" target="HeIXS3tcEKDFcrS3uAz8-8" edge="1">
          <mxGeometry relative="1" as="geometry" />
        </mxCell>
        <mxCell id="HeIXS3tcEKDFcrS3uAz8-1" value="&lt;font style=&quot;font-size: 28px;&quot;&gt;Backend&lt;/font&gt;" style="rounded=0;whiteSpace=wrap;html=1;fillColor=#999999;" parent="1" vertex="1">
          <mxGeometry x="320" y="10" width="160" height="110" as="geometry" />
        </mxCell>
        <mxCell id="HeIXS3tcEKDFcrS3uAz8-13" style="edgeStyle=orthogonalEdgeStyle;rounded=0;orthogonalLoop=1;jettySize=auto;html=1;entryX=0.5;entryY=0;entryDx=0;entryDy=0;strokeWidth=2;" parent="1" source="HeIXS3tcEKDFcrS3uAz8-2" target="HeIXS3tcEKDFcrS3uAz8-3" edge="1">
          <mxGeometry relative="1" as="geometry" />
        </mxCell>
        <mxCell id="Ha4UKfZtt0UMNNAGUH02-4" style="edgeStyle=orthogonalEdgeStyle;rounded=0;orthogonalLoop=1;jettySize=auto;html=1;entryX=0;entryY=0.5;entryDx=0;entryDy=0;strokeWidth=2;" edge="1" parent="1" source="HeIXS3tcEKDFcrS3uAz8-2" target="Ha4UKfZtt0UMNNAGUH02-3">
          <mxGeometry relative="1" as="geometry">
            <Array as="points">
              <mxPoint x="460" y="370" />
            </Array>
          </mxGeometry>
        </mxCell>
        <mxCell id="Ha4UKfZtt0UMNNAGUH02-6" style="edgeStyle=orthogonalEdgeStyle;rounded=0;orthogonalLoop=1;jettySize=auto;html=1;entryX=1;entryY=0.5;entryDx=0;entryDy=0;strokeWidth=2;" edge="1" parent="1" source="HeIXS3tcEKDFcrS3uAz8-2" target="Ha4UKfZtt0UMNNAGUH02-5">
          <mxGeometry relative="1" as="geometry">
            <Array as="points">
              <mxPoint x="350" y="370" />
            </Array>
          </mxGeometry>
        </mxCell>
        <mxCell id="HeIXS3tcEKDFcrS3uAz8-2" value="&lt;font style=&quot;font-size: 22px;&quot;&gt;Docker Container&lt;/font&gt;" style="rounded=0;whiteSpace=wrap;html=1;fillColor=#BBBBBB;" parent="1" vertex="1">
          <mxGeometry x="330" y="240" width="140" height="100" as="geometry" />
        </mxCell>
        <mxCell id="HeIXS3tcEKDFcrS3uAz8-18" style="edgeStyle=orthogonalEdgeStyle;rounded=0;orthogonalLoop=1;jettySize=auto;html=1;entryX=0.5;entryY=0;entryDx=0;entryDy=0;" parent="1" source="HeIXS3tcEKDFcrS3uAz8-3" target="HeIXS3tcEKDFcrS3uAz8-6" edge="1">
          <mxGeometry relative="1" as="geometry">
            <Array as="points">
              <mxPoint x="400" y="580" />
              <mxPoint x="400" y="580" />
            </Array>
          </mxGeometry>
        </mxCell>
        <mxCell id="HeIXS3tcEKDFcrS3uAz8-19" style="edgeStyle=orthogonalEdgeStyle;rounded=0;orthogonalLoop=1;jettySize=auto;html=1;entryX=1;entryY=0.5;entryDx=0;entryDy=0;" parent="1" source="HeIXS3tcEKDFcrS3uAz8-3" target="HeIXS3tcEKDFcrS3uAz8-5" edge="1">
          <mxGeometry relative="1" as="geometry">
            <Array as="points">
              <mxPoint x="270" y="510" />
              <mxPoint x="270" y="510" />
            </Array>
          </mxGeometry>
        </mxCell>
        <mxCell id="Ha4UKfZtt0UMNNAGUH02-2" style="edgeStyle=orthogonalEdgeStyle;rounded=0;orthogonalLoop=1;jettySize=auto;html=1;entryX=0;entryY=0.5;entryDx=0;entryDy=0;" edge="1" parent="1" source="HeIXS3tcEKDFcrS3uAz8-3" target="Ha4UKfZtt0UMNNAGUH02-1">
          <mxGeometry relative="1" as="geometry" />
        </mxCell>
        <mxCell id="HeIXS3tcEKDFcrS3uAz8-3" value="&lt;font style=&quot;font-size: 20px;&quot;&gt;Python&amp;nbsp;&lt;/font&gt;&lt;div&gt;&lt;font style=&quot;font-size: 20px;&quot;&gt;Web App&lt;/font&gt;&lt;/div&gt;" style="rounded=0;whiteSpace=wrap;html=1;fillColor=#EEEEEE;" parent="1" vertex="1">
          <mxGeometry x="337.5" y="460" width="125" height="100" as="geometry" />
        </mxCell>
        <mxCell id="HeIXS3tcEKDFcrS3uAz8-5" value="&lt;span style=&quot;font-size: 18px;&quot;&gt;Flask Web Framework&lt;/span&gt;" style="rounded=0;whiteSpace=wrap;html=1;" parent="1" vertex="1">
          <mxGeometry x="60" y="470" width="140" height="80" as="geometry" />
        </mxCell>
        <mxCell id="HeIXS3tcEKDFcrS3uAz8-6" value="&lt;span style=&quot;font-size: 18px;&quot;&gt;&amp;nbsp;SQLAlchemy&lt;/span&gt;&lt;div&gt;&lt;span style=&quot;font-size: 18px;&quot;&gt;Python Library&lt;/span&gt;&lt;/div&gt;" style="rounded=0;whiteSpace=wrap;html=1;" parent="1" vertex="1">
          <mxGeometry x="330" y="610" width="140" height="80" as="geometry" />
        </mxCell>
        <mxCell id="HeIXS3tcEKDFcrS3uAz8-15" style="edgeStyle=orthogonalEdgeStyle;rounded=0;orthogonalLoop=1;jettySize=auto;html=1;entryX=1;entryY=0.5;entryDx=0;entryDy=0;strokeWidth=2;" parent="1" source="HeIXS3tcEKDFcrS3uAz8-8" target="HeIXS3tcEKDFcrS3uAz8-2" edge="1">
          <mxGeometry relative="1" as="geometry">
            <Array as="points">
              <mxPoint x="680" y="290" />
            </Array>
          </mxGeometry>
        </mxCell>
        <mxCell id="HeIXS3tcEKDFcrS3uAz8-8" value="&lt;font style=&quot;font-size: 22px;&quot;&gt;Container Registry&lt;/font&gt;" style="rounded=0;whiteSpace=wrap;html=1;fillColor=#BBBBBB;" parent="1" vertex="1">
          <mxGeometry x="600" y="120" width="140" height="100" as="geometry" />
        </mxCell>
        <mxCell id="HeIXS3tcEKDFcrS3uAz8-14" style="edgeStyle=orthogonalEdgeStyle;rounded=0;orthogonalLoop=1;jettySize=auto;html=1;entryX=0;entryY=0.5;entryDx=0;entryDy=0;strokeWidth=2;" parent="1" source="HeIXS3tcEKDFcrS3uAz8-9" target="HeIXS3tcEKDFcrS3uAz8-2" edge="1">
          <mxGeometry relative="1" as="geometry">
            <Array as="points">
              <mxPoint x="120" y="290" />
            </Array>
          </mxGeometry>
        </mxCell>
        <mxCell id="HeIXS3tcEKDFcrS3uAz8-9" value="&lt;font style=&quot;font-size: 22px;&quot;&gt;Container Apps Environment&lt;/font&gt;" style="rounded=0;whiteSpace=wrap;html=1;strokeColor=#BBBBBB;fillColor=#BBBBBB;" parent="1" vertex="1">
          <mxGeometry x="60" y="120" width="140" height="100" as="geometry" />
        </mxCell>
        <mxCell id="Ha4UKfZtt0UMNNAGUH02-1" value="&lt;span style=&quot;font-size: 18px;&quot;&gt;Stripe&lt;/span&gt;" style="rounded=0;whiteSpace=wrap;html=1;" vertex="1" parent="1">
          <mxGeometry x="600" y="470" width="140" height="80" as="geometry" />
        </mxCell>
        <mxCell id="Ha4UKfZtt0UMNNAGUH02-3" value="&lt;span style=&quot;font-size: 18px;&quot;&gt;Microsoft ODBC 18 Driver for SQL Server&lt;/span&gt;" style="rounded=0;whiteSpace=wrap;html=1;fillColor=#EEEEEE;" vertex="1" parent="1">
          <mxGeometry x="560" y="320" width="125" height="100" as="geometry" />
        </mxCell>
        <mxCell id="Ha4UKfZtt0UMNNAGUH02-5" value="&lt;span style=&quot;font-size: 18px;&quot;&gt;Gunicorn&lt;/span&gt;" style="rounded=0;whiteSpace=wrap;html=1;fillColor=#EEEEEE;" vertex="1" parent="1">
          <mxGeometry x="120" y="320" width="125" height="100" as="geometry" />
        </mxCell>
      </root>
    </mxGraphModel>
  </diagram>
</mxfile>
